<?xml version="1.0" standalone="no"?>
<!DOCTYPE svg PUBLIC "-//W3C//DTD SVG 20010904//EN"
 "http://www.w3.org/TR/2001/REC-SVG-20010904/DTD/svg10.dtd">
<svg version="1.0" xmlns="http://www.w3.org/2000/svg"
 width="524.000000pt" height="317.000000pt" viewBox="0 0 524.000000 317.000000"
 preserveAspectRatio="xMidYMid meet">

<g transform="translate(0.000000,317.000000) scale(0.100000,-0.100000)"
fill="#000000" stroke="none">
<path d="M4344 3016 c-143 -67 -347 -210 -467 -329 -179 -178 -274 -357 -322
-610 l-6 -29 -42 49 c-310 357 -796 526 -1361 473 -621 -59 -1049 -410 -1251
-1025 -59 -178 -105 -422 -105 -552 l0 -43 140 0 c138 0 140 0 140 23 0 12 15
65 33 119 131 379 490 616 1015 669 137 14 479 6 597 -15 215 -37 376 -99 530
-200 186 -125 329 -331 367 -530 l13 -66 149 0 149 0 -7 83 c-10 117 -33 257
-61 366 -13 53 -22 97 -21 99 2 2 30 -5 62 -15 82 -25 315 -25 434 0 183 39
362 106 571 214 219 114 217 109 63 116 -146 7 -240 27 -301 62 -46 27 -106
93 -125 137 -7 15 -15 28 -18 27 -3 0 -22 -27 -44 -60 -69 -108 -205 -193
-358 -223 -109 -22 -370 -22 -389 0 -18 22 0 83 61 209 96 199 232 368 365
455 81 52 196 90 276 90 33 0 59 3 57 8 -2 4 -18 35 -36 69 -18 35 -39 89 -47
120 -16 61 -19 207 -6 286 4 26 5 47 2 47 -3 0 -29 -11 -57 -24z"/>
<path d="M1521 1122 c-40 -22 -67 -68 -77 -129 l-7 -43 152 0 151 0 0 38 c0
45 -26 99 -60 124 -39 28 -118 33 -159 10z"/>
<path d="M3071 1122 c-48 -24 -70 -59 -78 -120 l-6 -52 153 0 153 0 -7 46 c-8
65 -38 109 -86 128 -52 21 -87 20 -129 -2z"/>
<path d="M3762 650 c-72 -33 -92 -121 -40 -177 11 -12 49 -32 83 -43 73 -24
105 -52 89 -78 -17 -26 -70 -28 -86 -3 -10 17 -23 21 -65 21 -29 0 -53 -2 -53
-5 0 -3 6 -21 14 -40 36 -85 203 -102 270 -27 10 12 21 41 23 65 7 61 -26 98
-112 127 -71 24 -88 38 -83 72 4 32 50 37 75 9 25 -30 113 -31 113 -2 0 30
-48 79 -88 91 -54 15 -92 12 -140 -10z"/>
<path d="M340 455 l0 -205 50 0 49 0 3 127 3 126 84 -126 84 -127 48 0 49 0 0
205 0 205 -50 0 -50 0 0 -127 0 -128 -83 127 -82 128 -52 0 -53 0 0 -205z"/>
<path d="M900 455 l0 -205 50 0 50 0 0 205 0 205 -50 0 -50 0 0 -205z"/>
<path d="M1200 455 l0 -205 45 0 44 0 3 128 3 127 85 -127 85 -127 48 -1 47 0
0 205 0 205 -50 0 -49 0 -3 -122 -3 -123 -79 123 -79 122 -49 0 -48 0 0 -205z"/>
<path d="M1920 511 c0 -142 -1 -151 -22 -165 -25 -18 -53 -7 -63 24 -5 16 -15
20 -52 20 l-46 0 6 -37 c4 -22 19 -49 36 -67 60 -59 194 -41 221 30 6 14 10
97 10 185 l0 159 -45 0 -45 0 0 -149z"/>
<path d="M2329 633 c-6 -15 -37 -100 -69 -188 -32 -88 -61 -168 -65 -178 -7
-16 -2 -18 46 -15 51 3 54 5 63 36 l9 32 82 0 82 0 9 -32 c9 -31 12 -33 62
-36 29 -2 52 -2 52 0 0 2 -33 93 -73 203 l-72 200 -58 3 c-54 3 -58 2 -68 -25z
m95 -161 l25 -72 -54 0 -54 0 26 76 c14 41 27 73 29 71 2 -2 15 -36 28 -75z"/>
<path d="M3010 455 l0 -205 115 0 115 0 0 40 0 40 -65 0 -65 0 0 165 0 165
-50 0 -50 0 0 -205z"/>
<path d="M3410 455 l0 -205 50 0 50 0 0 205 0 205 -50 0 -50 0 0 -205z"/>
<path d="M4162 623 l3 -38 53 -3 52 -3 0 -165 0 -164 50 0 50 0 0 165 0 165
55 0 55 0 0 40 0 40 -161 0 -160 0 3 -37z"/>
</g>
</svg>
